<svg width="161" height="55" viewBox="0 0 161 55" fill="none" xmlns="http://www.w3.org/2000/svg">
<path d="M16.944 36L16.92 27.096L12.6 34.344H10.488L6.168 27.288V36H1.8V19.2H5.712L11.616 28.896L17.376 19.2H21.288L21.336 36H16.944Z" fill="#2A2367"/>
<path d="M83.168 32.328V36H69.68V19.2H82.856V22.872H74.384V25.704H81.848V29.256H74.384V32.328H83.168ZM103.469 19.2V36H99.557L92.141 27.048V36H87.485V19.2H91.397L98.813 28.152V19.2H103.469ZM108.501 19.2H113.253V36H108.501V19.2ZM126.066 36.336C123.57 36.336 121.626 35.656 120.234 34.296C118.858 32.936 118.17 31.008 118.17 28.512V19.2H122.922V28.368C122.922 31.056 123.986 32.4 126.114 32.4C128.226 32.4 129.282 31.056 129.282 28.368V19.2H133.962V28.512C133.962 31.008 133.266 32.936 131.874 34.296C130.498 35.656 128.562 36.336 126.066 36.336ZM154.029 36L153.981 27.096L149.661 34.344H147.549L143.253 27.336V36H138.861V19.2H142.773L148.677 28.896L154.437 19.2H158.349L158.397 36H154.029Z" fill="#2A2367"/>
<rect x="28" y="19" width="7" height="17" fill="#6B5AF9"/>
<rect x="42" y="7" width="7" height="41" fill="#6B5AF9"/>
<rect x="56" width="7" height="55" fill="#6B5AF9"/>
</svg>
